<?xml version="1.0" encoding="UTF-8"?>
<svg version="1.1" xmlns="http://www.w3.org/2000/svg" width="256" height="256">
<path d="M0 0 C0.88816406 0.39058594 1.77632813 0.78117187 2.69140625 1.18359375 C15.0193343 7.23610919 23.74687036 17.11410018 28.1875 30 C29.288632 33.41479458 30.1090454 36.64649654 30.625 40.1875 C31.73850302 45.09703603 35.73857962 47.53214968 39.4453125 50.62109375 C43.25122638 54.16513282 45.81408576 58.29939579 48 63 C48 63.66 48 64.32 48 65 C48.86625 65.2475 49.7325 65.495 50.625 65.75 C58.19108224 68.55225268 64.09816754 73.87167064 68.07421875 80.8984375 C71.85638124 89.34834199 71.98173974 97.77638857 69.09375 106.48046875 C65.48251208 114.79921325 59.31853855 120.51044357 51 124 C47.02362072 125.09107968 43.13268126 125.94967816 39 126 C37.515 125.01 37.515 125.01 36 124 C36 123.01 36 122.02 36 121 C34.35 121 32.7 121 31 121 C30.814375 121.9590625 30.814375 121.9590625 30.625 122.9375 C30.41875 123.618125 30.2125 124.29875 30 125 C27.60460279 126.1976986 26.08893873 126.13937179 23.41430664 126.16113281 C22.46314468 126.17074036 21.51198273 126.1803479 20.53199768 126.19024658 C19.50179001 126.19449646 18.47158234 126.19874634 17.41015625 126.203125 C16.35469101 126.20882507 15.29922577 126.21452515 14.21177673 126.22039795 C11.97656255 126.22985489 9.74133439 126.23638468 7.50610352 126.24023438 C4.07999498 126.24995039 0.65448353 126.28097193 -2.77148438 126.3125 C-4.94010059 126.31902881 -7.10872111 126.32427976 -9.27734375 126.328125 C-10.30552719 126.3404718 -11.33371063 126.3528186 -12.39305115 126.36553955 C-13.34736526 126.36253845 -14.30167938 126.35953735 -15.28491211 126.35644531 C-16.54494301 126.36191376 -16.54494301 126.36191376 -17.83042908 126.36749268 C-20.49225422 125.91661954 -21.39410344 125.13539455 -23 123 C-23 122.34 -23 121.68 -23 121 C-24.65 121 -26.3 121 -28 121 C-28.495 122.98 -28.495 122.98 -29 125 C-37.03783439 126.96322327 -44.48374504 124.37413729 -51.61328125 120.53515625 C-59.65911228 115.36001452 -64.64509033 108.1854936 -67.609375 99.140625 C-69.05539545 91.21643294 -68.75973798 83.14894046 -65.75 75.6875 C-64.01546147 71.209127 -63.85471206 68.96782826 -65.6875 64.5 C-66.4556928 62.99864599 -67.22630463 61.49852577 -68 60 C-71.61144462 47.67626313 -69.28628109 33.13756831 -63.421875 22.00390625 C-56.40468835 10.35600859 -46.96329509 2.35143362 -33.875 -1.9375 C-23.14922374 -4.44381346 -10.1380352 -4.55778335 0 0 Z " fill="#FDFDFD" transform="translate(145,68)"/>
<path d="M0 0 C0.88816406 0.39058594 1.77632813 0.78117187 2.69140625 1.18359375 C15.0193343 7.23610919 23.74687036 17.11410018 28.1875 30 C29.288632 33.41479458 30.1090454 36.64649654 30.625 40.1875 C31.73850302 45.09703603 35.73857962 47.53214968 39.4453125 50.62109375 C43.25122638 54.16513282 45.81408576 58.29939579 48 63 C48 63.66 48 64.32 48 65 C48.86625 65.2475 49.7325 65.495 50.625 65.75 C58.19108224 68.55225268 64.09816754 73.87167064 68.07421875 80.8984375 C71.85638124 89.34834199 71.98173974 97.77638857 69.09375 106.48046875 C65.48251208 114.79921325 59.31853855 120.51044357 51 124 C47.02362072 125.09107968 43.13268126 125.94967816 39 126 C37.515 125.01 37.515 125.01 36 124 C36.875 118.125 36.875 118.125 38 117 C39.68515557 116.75418645 41.37327578 116.52859058 43.0625 116.3125 C49.75660797 115.1214704 54.16111634 112.60288917 58.37890625 107.25 C61.77800492 101.5650963 61.75315344 95.44167709 61 89 C60.25976469 86.36438511 59.32058871 84.43800993 58 82 C57.690625 81.236875 57.38125 80.47375 57.0625 79.6875 C55.36034918 76.98408399 52.64760906 76.25702335 49.74609375 75.10546875 C44.87093008 73.1669519 42.24809433 71.94580753 40 67 C34.85503278 58.0236742 28.54717588 51.04565995 18.46484375 47.54296875 C9.45309078 45.55781239 0.92055032 46.26078873 -7 51 C-8.051875 51.598125 -9.10375 52.19625 -10.1875 52.8125 C-13.13883689 55.10798425 -15.14105054 57.4936625 -17.3125 60.51171875 C-21.22051553 63.95837134 -26.97641467 63.03864984 -31.875 62.875 C-39.50625798 62.83483548 -45.67448827 63.85378868 -51.546875 69.2421875 C-57.12205944 75.98636222 -59.94926663 83.37115256 -59.45703125 92.10546875 C-58.12966214 100.51213979 -54.9974296 106.09789744 -48.2890625 111.3359375 C-43.51598864 114.7063121 -39.19275774 115.77742435 -33.41796875 116.4453125 C-30.67370648 117.07485247 -29.63096921 117.72435715 -28 120 C-28.3125 122.6875 -28.3125 122.6875 -29 125 C-37.03783439 126.96322327 -44.48374504 124.37413729 -51.61328125 120.53515625 C-59.65911228 115.36001452 -64.64509033 108.1854936 -67.609375 99.140625 C-69.05539545 91.21643294 -68.75973798 83.14894046 -65.75 75.6875 C-64.01546147 71.209127 -63.85471206 68.96782826 -65.6875 64.5 C-66.4556928 62.99864599 -67.22630463 61.49852577 -68 60 C-71.61144462 47.67626313 -69.28628109 33.13756831 -63.421875 22.00390625 C-56.40468835 10.35600859 -46.96329509 2.35143362 -33.875 -1.9375 C-23.14922374 -4.44381346 -10.1380352 -4.55778335 0 0 Z " fill="#271C18" transform="translate(145,68)"/>
<path d="M0 0 C2.01269538 1.44372188 3.82847551 2.97446297 5.65625 4.64453125 C6.25953125 5.14597656 6.8628125 5.64742187 7.484375 6.1640625 C14.29497627 12.24918668 18.50288608 20.618788 19.65625 29.64453125 C17.985625 29.39703125 17.985625 29.39703125 16.28125 29.14453125 C2.90611178 27.57511924 -8.20291509 29.68674481 -19.22265625 37.86328125 C-21.41252314 39.58719103 -21.41252314 39.58719103 -23.11328125 41.83203125 C-26.33706612 44.45170932 -29.49661089 44.15017103 -33.46875 44.14453125 C-43.04679696 44.41624168 -49.91011178 46.33720185 -57.34375 52.64453125 C-58.33375 52.64453125 -59.32375 52.64453125 -60.34375 52.64453125 C-64.48877563 39.88870832 -64.85296074 28.20043128 -58.71875 16.08203125 C-52.33053612 5.12425769 -43.29681973 -1.04419603 -31.32421875 -5.02734375 C-20.62496426 -6.8000013 -9.45211334 -5.46647222 0 0 Z " fill="#F6B42C" transform="translate(147.34375,78.35546875)"/>
<path d="M0 0 C5.08744416 2.88004288 7.67520926 5.72387811 9.91015625 11.125 C10.79523227 16.53379791 9.41645953 19.71895654 6.6875 24.23046875 C2.10046587 29.11994469 -1.97496851 30.37810599 -8.54418945 30.61083984 C-11.11798271 30.62367075 -13.69195374 30.61409028 -16.265625 30.5859375 C-17.64088264 30.58355003 -19.01614358 30.58264839 -20.3914032 30.5831604 C-23.26025073 30.58004577 -26.12859374 30.5635763 -28.99731445 30.53662109 C-32.67730513 30.5024818 -36.35674709 30.49499775 -40.03687763 30.49651146 C-42.87043 30.4959685 -45.70386207 30.48501605 -48.5373745 30.47050858 C-49.8949715 30.46414148 -51.25258212 30.46020188 -52.61019325 30.45872116 C-54.50100228 30.45439649 -56.39176039 30.43532552 -58.2824707 30.41552734 C-59.35833939 30.40790375 -60.43420807 30.40028015 -61.54267883 30.39242554 C-64.08984375 30.125 -64.08984375 30.125 -66.08984375 28.125 C-65.71484375 25 -65.71484375 25 -65.08984375 22.125 C-64.33451355 22.11691315 -63.57918335 22.10882629 -62.80096436 22.10049438 C-55.67944454 22.02252349 -48.55812888 21.93522548 -41.43685532 21.83747292 C-37.77581312 21.7875468 -34.11479926 21.74121661 -30.45361328 21.703125 C-26.91974589 21.66622537 -23.38611771 21.61985305 -19.85245514 21.56693649 C-17.84953118 21.53941037 -15.84648048 21.52167189 -13.84344482 21.50405884 C-12.62248108 21.48418915 -11.40151733 21.46431946 -10.14355469 21.44384766 C-9.06877869 21.43052399 -7.99400269 21.41720032 -6.88665771 21.4034729 C-4.08957818 21.12497356 -2.42650781 20.65823202 -0.08984375 19.125 C1.32457499 16.29616253 1.22915957 14.25123255 0.91015625 11.125 C-0.55026141 9.00829643 -0.55026141 9.00829643 -3.08984375 8.125 C-8.14091566 8.30958358 -8.14091566 8.30958358 -12.08984375 11.125 C-14.71484375 10.75 -14.71484375 10.75 -17.08984375 10.125 C-17.58484375 7.65 -17.58484375 7.65 -18.08984375 5.125 C-12.44245104 0.41883941 -7.57988965 -3.17363604 0 0 Z " fill="#372D2A" transform="translate(181.08984375,148.875)"/>
<path d="M0 0 C2.12907278 -0.00961967 4.25714378 -0.04059894 6.38598633 -0.07226562 C20.76883691 -0.18566454 20.76883691 -0.18566454 27.09887695 3.24023438 C30.54158398 6.68294141 31.36410025 9.50912811 31.59887695 14.24023438 C31.37952618 18.94566229 30.42168687 21.74702395 27.09887695 25.24023438 C21.62435271 28.50389306 18.10751696 28.59702405 12.09887695 27.24023438 C9.16137695 26.05273438 9.16137695 26.05273438 7.09887695 24.24023438 C6.16137695 21.17773438 6.16137695 21.17773438 6.09887695 18.24023438 C8.09887695 16.24023438 8.09887695 16.24023438 10.53637695 15.99023438 C13.09887695 16.24023438 13.09887695 16.24023438 16.09887695 18.24023438 C18.74519982 17.92805798 18.74519982 17.92805798 21.09887695 17.24023438 C21.87129964 15.40322648 21.87129964 15.40322648 22.09887695 13.24023438 C21.12764082 11.47151152 21.12764082 11.47151152 19.09887695 10.24023438 C16.54219534 9.9333877 14.21570096 9.79925133 11.6574707 9.79882812 C10.93398941 9.78562027 10.21050812 9.77241241 9.46510315 9.75880432 C7.15548832 9.7179197 4.84627179 9.6962366 2.53637695 9.67773438 C0.22303217 9.65396467 -2.08993642 9.62588776 -4.40306091 9.58595276 C-5.84194321 9.56155507 -7.28102559 9.54672955 -8.72010803 9.54234314 C-13.67658932 9.4647681 -13.67658932 9.4647681 -15.90112305 7.24023438 C-15.65112305 4.17773438 -15.65112305 4.17773438 -14.90112305 1.24023438 C-10.57813876 -0.92125777 -4.80138957 0.01311407 0 0 Z " fill="#221714" transform="translate(146.901123046875,198.759765625)"/>
<path d="M0 0 C0.95123749 -0.00960754 1.90247498 -0.01921509 2.88253784 -0.02911377 C3.9179068 -0.03336365 4.95327576 -0.03761353 6.02001953 -0.04199219 C7.60533981 -0.0505423 7.60533981 -0.0505423 9.22268677 -0.05926514 C11.46387729 -0.06873167 13.70508184 -0.07525565 15.94628906 -0.07910156 C19.38126844 -0.08880626 22.81564953 -0.1198142 26.25048828 -0.15136719 C28.4236618 -0.1578969 30.59683961 -0.1631475 32.77001953 -0.16699219 C33.80134003 -0.17933899 34.83266052 -0.19168579 35.89523315 -0.20440674 C36.85277496 -0.20140564 37.81031677 -0.19840454 38.796875 -0.1953125 C39.6399118 -0.19895813 40.48294861 -0.20260376 41.35153198 -0.20635986 C44.02936397 0.24582211 44.94449315 0.98143361 46.52783203 3.16113281 C46.34033203 5.78613281 46.34033203 5.78613281 45.52783203 8.16113281 C43.13243482 9.35883142 41.61677076 9.3005046 38.94213867 9.32226562 C37.99097672 9.33187317 37.03981476 9.34148071 36.05982971 9.35137939 C35.02962204 9.35562927 33.99941437 9.35987915 32.93798828 9.36425781 C31.35479042 9.37280792 31.35479042 9.37280792 29.73960876 9.38153076 C27.50439458 9.3909877 25.26916642 9.39751749 23.03393555 9.40136719 C19.60782701 9.4110832 16.18231557 9.44210474 12.75634766 9.47363281 C10.58773144 9.48016162 8.41911092 9.48541257 6.25048828 9.48925781 C4.70821312 9.50777802 4.70821312 9.50777802 3.13478088 9.52667236 C2.18046677 9.52367126 1.22615265 9.52067017 0.24291992 9.51757812 C-1.01711098 9.52304657 -1.01711098 9.52304657 -2.30259705 9.52862549 C-4.93424122 9.08286456 -5.81235037 8.19609091 -7.47216797 6.16113281 C-5.11847629 0.04153444 -5.11847629 0.04153444 0 0 Z " fill="#2C211F" transform="translate(129.47216796875,184.8388671875)"/>
<path d="M0 0 C3 2.4375 3 2.4375 5 5 C5.495 5.495 5.495 5.495 6 6 C6.44166754 9.05381556 6.48223087 11.95105642 6 15 C3.5625 18 3.5625 18 1 20 C0.505 20.495 0.505 20.495 0 21 C-1.7492872 21.09365006 -3.50236254 21.11744438 -5.25415039 21.11352539 C-6.37523697 21.11344986 -7.49632355 21.11337433 -8.65138245 21.11329651 C-10.48103798 21.10555458 -10.48103798 21.10555458 -12.34765625 21.09765625 C-13.58921982 21.0962413 -14.83078339 21.09482635 -16.10997009 21.09336853 C-19.41605491 21.08870591 -22.72207146 21.07971497 -26.02813721 21.06866455 C-29.3996115 21.05844827 -32.77109283 21.05387045 -36.14257812 21.04882812 C-42.76173775 21.03777395 -49.38086493 21.02101736 -56 21 C-56.33 20.01 -56.66 19.02 -57 18 C-56.33236633 17.99191315 -55.66473267 17.98382629 -54.97686768 17.97549438 C-48.03386241 17.8894985 -41.09114429 17.78999678 -34.1484375 17.68261719 C-31.55668964 17.6443123 -28.96488834 17.60946213 -26.37304688 17.578125 C-22.64954517 17.53250783 -18.92641185 17.4745069 -15.203125 17.4140625 C-14.04258606 17.40251129 -12.88204712 17.39096008 -11.68634033 17.37905884 C-10.60552185 17.35918915 -9.52470337 17.33931946 -8.41113281 17.31884766 C-6.98550018 17.29886215 -6.98550018 17.29886215 -5.53106689 17.2784729 C-2.87909669 16.98669798 -1.23757126 16.4340146 1 15 C2.41441874 12.17116253 2.31900332 10.12623255 2 7 C0.53958234 4.88329643 0.53958234 4.88329643 -2 4 C-7.05107191 4.18458358 -7.05107191 4.18458358 -11 7 C-13.625 6.625 -13.625 6.625 -16 6 C-10.9422829 0.76787886 -7.29582955 -1.3055695 0 0 Z " fill="#251A17" transform="translate(180,153)"/>
<path d="M0 0 C1.875 0.75 1.875 0.75 3.875 2.75 C4.01953125 5.0390625 4.01953125 5.0390625 2.875 7.75 C0.30872186 9.90236231 -2.52215571 11.49125735 -5.4375 13.125 C-6.21029297 13.58777344 -6.98308594 14.05054688 -7.77929688 14.52734375 C-13.50276703 17.82461374 -13.50276703 17.82461374 -16.25463867 17.49462891 C-18.125 16.75 -18.125 16.75 -20.125 14.75 C-20.14453125 12.38671875 -20.14453125 12.38671875 -19.125 9.75 C-17.0102994 8.11309786 -15.12083152 6.84824817 -12.8125 5.5625 C-12.23048828 5.22025391 -11.64847656 4.87800781 -11.04882812 4.52539062 C-2.73755837 -0.32206569 -2.73755837 -0.32206569 0 0 Z " fill="#221714" transform="translate(71.125,142.25)"/>
<path d="M0 0 C0.91974609 -0.01224609 1.83949219 -0.02449219 2.78710938 -0.03710938 C3.67076172 -0.03904297 4.55441406 -0.04097656 5.46484375 -0.04296875 C6.27429443 -0.04707764 7.08374512 -0.05118652 7.91772461 -0.05541992 C10.0625 0.1875 10.0625 0.1875 13.0625 2.1875 C13.375 4.6875 13.375 4.6875 13.0625 7.1875 C10.06878497 10.18121503 7.25755771 9.48006348 3.1640625 9.50976562 C2.14054687 9.50654297 1.11703125 9.50332031 0.0625 9.5 C-1.47277344 9.52416992 -1.47277344 9.52416992 -3.0390625 9.54882812 C-4.50472656 9.54979492 -4.50472656 9.54979492 -6 9.55078125 C-6.89847656 9.55376221 -7.79695313 9.55674316 -8.72265625 9.55981445 C-9.81900391 9.3755188 -9.81900391 9.3755188 -10.9375 9.1875 C-12.9375 6.1875 -12.9375 6.1875 -12.6875 3.5625 C-12.44 2.77875 -12.1925 1.995 -11.9375 1.1875 C-8.29852049 -0.63198976 -4.00590712 0.00279547 0 0 Z " fill="#221714" transform="translate(52.9375,109.8125)"/>
<path d="M0 0 C3.125 0.375 3.125 0.375 6 1 C7.04596045 3.59668789 7.23765173 5.37120994 6.24169922 8.00634766 C5.05699163 10.3329172 3.77406549 12.56985214 2.4375 14.8125 C2.00630859 15.60076172 1.57511719 16.38902344 1.13085938 17.20117188 C-0.1220127 19.33864195 -1.29569145 21.20097555 -3 23 C-6.21484375 23.63671875 -6.21484375 23.63671875 -9 23 C-9.66 22.34 -10.32 21.68 -11 21 C-10.72600395 16.37527881 -8.36421287 12.71115348 -6.0625 8.8125 C-5.70220703 8.18408203 -5.34191406 7.55566406 -4.97070312 6.90820312 C-3.47912724 4.33983582 -2.10886288 2.10886288 0 0 Z " fill="#221714" transform="translate(164,40)"/>
<path d="M0 0 C4.67800999 1.63213125 5.85183864 4.60353095 8.0546875 8.859375 C8.456875 9.57609375 8.8590625 10.2928125 9.2734375 11.03125 C13.04509152 18.01009281 13.04509152 18.01009281 12.1796875 22.109375 C9.1796875 24.109375 9.1796875 24.109375 7.1796875 23.9921875 C4.52432016 22.82009176 3.7077507 21.43425893 2.1796875 18.984375 C1.67179687 18.17226563 1.16390625 17.36015625 0.640625 16.5234375 C0.15851563 15.72679687 -0.32359375 14.93015625 -0.8203125 14.109375 C-1.24054688 13.45710938 -1.66078125 12.80484375 -2.09375 12.1328125 C-4.21968947 8.71020073 -5.51488808 6.16106587 -4.8203125 2.109375 C-2.8203125 0.109375 -2.8203125 0.109375 0 0 Z " fill="#221713" transform="translate(85.8203125,39.890625)"/>
<path d="M0 0 C2.375 0.75 2.375 0.75 3.375 1.75 C3.62656269 5.38899175 3.56022226 9.04083673 3.5625 12.6875 C3.57474609 13.71552734 3.58699219 14.74355469 3.59960938 15.80273438 C3.60250977 17.27516602 3.60250977 17.27516602 3.60546875 18.77734375 C3.60957764 19.68218506 3.61368652 20.58702637 3.61791992 21.51928711 C3.375 23.75 3.375 23.75 1.375 25.75 C-1.6875 25.5 -1.6875 25.5 -4.625 24.75 C-6.44689994 21.10620011 -5.85260405 16.82417515 -5.875 12.8125 C-5.895625 11.89275391 -5.91625 10.97300781 -5.9375 10.02539062 C-5.94265625 9.14173828 -5.9478125 8.25808594 -5.953125 7.34765625 C-5.9624707 6.53820557 -5.97181641 5.72875488 -5.98144531 4.89477539 C-5.35845904 1.14619016 -3.77685156 -0.35970015 0 0 Z " fill="#231814" transform="translate(126.625,29.25)"/>
<path d="M0 0 C0.91974609 -0.01224609 1.83949219 -0.02449219 2.78710938 -0.03710938 C3.67076172 -0.03904297 4.55441406 -0.04097656 5.46484375 -0.04296875 C6.27429443 -0.04707764 7.08374512 -0.05118652 7.91772461 -0.05541992 C10.0625 0.1875 10.0625 0.1875 13.0625 2.1875 C13.375 4.6875 13.375 4.6875 13.0625 7.1875 C11.0625 9.1875 11.0625 9.1875 8.81591797 9.41455078 C7.90471191 9.40407715 6.99350586 9.39360352 6.0546875 9.3828125 C5.06855469 9.37636719 4.08242187 9.36992188 3.06640625 9.36328125 C1.51759766 9.33814453 1.51759766 9.33814453 -0.0625 9.3125 C-1.10277344 9.30347656 -2.14304688 9.29445313 -3.21484375 9.28515625 C-5.78929092 9.26153747 -8.36328212 9.22860149 -10.9375 9.1875 C-13.0625 4.5625 -13.0625 4.5625 -11.9375 1.1875 C-8.29852049 -0.63198976 -4.00590712 0.00279547 0 0 Z " fill="#221714" transform="translate(197.9375,109.8125)"/>
<path d="M0 0 C5.61817156 0.24969651 9.62728113 1.99652552 14.375 4.75 C15.00277344 5.08515625 15.63054687 5.4203125 16.27734375 5.765625 C19.1969529 7.43036974 20.79379486 8.44299967 21.98046875 11.6484375 C22 14 22 14 20.9375 15.875 C18.01343704 17.57284301 16.25161865 16.78054078 13 16 C10.4547118 14.84705324 8.10678547 13.67859495 5.6875 12.3125 C5.05521484 11.98572266 4.42292969 11.65894531 3.77148438 11.32226562 C0.50842922 9.4931361 -0.84875313 8.45600649 -2.04296875 4.85546875 C-2 2 -2 2 0 0 Z " fill="#221714" transform="translate(53,70)"/>
<path d="M0 0 C0.33 2.31 0.66 4.62 1 7 C0.09636719 7.55429688 -0.80726563 8.10859375 -1.73828125 8.6796875 C-2.92970579 9.41142856 -4.12111103 10.14320104 -5.3125 10.875 C-5.90740234 11.23980469 -6.50230469 11.60460937 -7.11523438 11.98046875 C-9.77362299 13.61411539 -12.40343737 15.26895824 -15 17 C-17.5625 17.25 -17.5625 17.25 -20 17 C-22 15 -22 15 -22.37890625 12.56640625 C-22 10 -22 10 -20.27734375 8.33984375 C-19.50519531 7.87707031 -18.73304688 7.41429688 -17.9375 6.9375 C-17.11507812 6.43863281 -16.29265625 5.93976563 -15.4453125 5.42578125 C-14.63835937 4.95527344 -13.83140625 4.48476562 -13 4 C-12.03707031 3.37158203 -12.03707031 3.37158203 -11.0546875 2.73046875 C-7.2345392 0.30647331 -4.50206715 -0.43922606 0 0 Z " fill="#221714" transform="translate(199,70)"/>
<path d="M0 0 C0.66 0 1.32 0 2 0 C2.36629408 4.27343092 1.40814077 6.48812804 -1 10 C-1.99 9.67 -2.98 9.34 -4 9 C-4.66 9.66 -5.32 10.32 -6 11 C-5.49691315 7.27715732 -4.88896023 5.42672659 -2 3 C-1.34 2.34 -0.68 1.68 0 1 C0 0.67 0 0.34 0 0 Z " fill="#342A27" transform="translate(89,136)"/>
</svg>
